HIERARCHY
ROOT Hips
{
 OFFSET 0.000000 0.000000 0.000000
 CHANNELS 6 Xposition Yposition Zposition Yrotation Xrotation Zrotation
 JOINT Chest
 {
  OFFSET 0.000000 9.585900 0.002600
  CHANNELS 3 Yrotation Xrotation Zrotation
  JOINT Chest2
  {
   OFFSET 0.000000 9.601200 -0.005300
   CHANNELS 3 Yrotation Xrotation Zrotation
   JOINT Chest3
   {
    OFFSET 0.000000 9.561800 0.000000
    CHANNELS 3 Yrotation Xrotation Zrotation
    JOINT Chest4
    {
     OFFSET 0.000000 9.552100 0.000000
     CHANNELS 3 Yrotation Xrotation Zrotation
     JOINT Neck
     {
      OFFSET 0.000000 14.453000 0.000000
      CHANNELS 3 Yrotation Xrotation Zrotation
      JOINT Head
      {
       OFFSET 0.000000 8.936500 -0.011300
       CHANNELS 3 Yrotation Xrotation Zrotation
       End Site
       {
        OFFSET 0.000000 17.073600 -0.006000
       }
      }
     }
     JOINT RightCollar
     {
      OFFSET -2.921100 9.558500 0.000000
      CHANNELS 3 Yrotation Xrotation Zrotation
      JOINT RightShoulder
      {
       OFFSET -13.519700 0.000000 0.000000
       CHANNELS 3 Yrotation Xrotation Zrotation
       JOINT RightElbow
       {
        OFFSET 0.000000 -29.696600 0.000000
        CHANNELS 3 Yrotation Xrotation Zrotation
        JOINT RightWrist
        {
         OFFSET 0.000000 -24.004700 0.000000
         CHANNELS 3 Yrotation Xrotation Zrotation
         End Site
         {
          OFFSET 0.000000 -17.728500 0.000000
         }
        }
       }
      }
     }
     JOINT LeftCollar
     {
      OFFSET 2.921100 9.558500 0.000000
      CHANNELS 3 Yrotation Xrotation Zrotation
      JOINT LeftShoulder
      {
       OFFSET 13.519700 0.000000 0.000000
       CHANNELS 3 Yrotation Xrotation Zrotation
       JOINT LeftElbow
       {
        OFFSET 0.000000 -29.696600 0.000000
        CHANNELS 3 Yrotation Xrotation Zrotation
        JOINT LeftWrist
        {
         OFFSET 0.000000 -24.004700 0.000000
         CHANNELS 3 Yrotation Xrotation Zrotation
         End Site
         {
          OFFSET 0.000000 -17.728500 0.000000
         }
        }
       }
      }
     }
    }
   }
  }
 }
 JOINT RightHip
 {
  OFFSET -7.771700 -0.012900 -0.001300
  CHANNELS 3 Yrotation Xrotation Zrotation
  JOINT RightKnee
  {
   OFFSET 0.000000 -40.869800 0.001200
   CHANNELS 3 Yrotation Xrotation Zrotation
   JOINT RightAnkle
   {
    OFFSET 0.000000 -39.717900 0.002100
    CHANNELS 3 Yrotation Xrotation Zrotation
    JOINT RightToe
    {
     OFFSET 0.000000 -4.965400 11.033500
     CHANNELS 3 Yrotation Xrotation Zrotation
     End Site
     {
      OFFSET 0.000000 -1.423100 5.872300
     }
    }
   }
  }
 }
 JOINT LeftHip
 {
  OFFSET 7.771700 -0.012900 -0.001300
  CHANNELS 3 Yrotation Xrotation Zrotation
  JOINT LeftKnee
  {
   OFFSET 0.000000 -40.869800 0.001200
   CHANNELS 3 Yrotation Xrotation Zrotation
   JOINT LeftAnkle
   {
    OFFSET 0.000000 -39.717900 0.002100
    CHANNELS 3 Yrotation Xrotation Zrotation
    JOINT LeftToe
    {
     OFFSET 0.000000 -4.965400 11.033500
     CHANNELS 3 Yrotation Xrotation Zrotation
     End Site
     {
      OFFSET 0.000000 -1.423100 5.872300
     }
    }
   }
  }
 }
}
MOTION
Frames: 8
Frame Time: 0.008333
-37.480179 52.803506 -3.517857 -177.376504 -18.353388 -2.212980 0.556032 16.772739 0.128581 0.058397 1.714759 0.020744 0.101403 2.886539 0.030018 0.553092 14.837750 0.207516 -2.290237 18.821174 1.743066 -2.826298 -5.786762 2.365465 1.641534 -0.923023 3.166467 1.206302 -10.669904 -6.528303 -108.573467 -76.188313 140.982607 -7.886585 -23.290578 -11.399343 -6.221573 -1.397193 0.153448 2.182117 -8.693313 10.353777 79.607831 -62.039444 -118.788726 2.619227 -15.279788 10.118836 2.767959 -60.479922 10.003996 179.823029 86.210115 178.480297 -13.839984 -23.121975 11.834072 -0.034104 -0.009954 0.297328 5.412581 -58.755921 -3.909543 120.665124 77.954946 118.881284 -6.926214 -20.027076 -0.562345 0.034841 0.101025 0.016513
-37.480280 52.804544 -3.513721 -177.375038 -18.361108 -2.218302 0.553412 16.765083 0.136043 0.061286 1.715810 0.022771 0.100614 2.885079 0.030477 0.544845 14.831566 0.206563 -2.266692 18.758770 1.705097 -2.796623 -5.861597 2.317959 1.645866 -0.917064 3.166285 1.182687 -10.681112 -6.513534 -108.516983 -76.199064 140.944353 -7.896206 -23.300167 -11.389303 -6.214336 -1.378107 0.152379 2.188416 -8.685018 10.339537 79.592626 -62.045666 -118.772523 2.625051 -15.243100 10.115411 2.728655 -60.463772 10.004964 179.457784 86.212356 178.047948 -13.455157 -23.133385 11.739047 -0.015657 -0.039624 0.254385 5.408984 -58.750559 -3.901877 120.630931 77.954903 118.844094 -6.922816 -20.018526 -0.559312 0.027400 0.100040 0.015325
-37.481341 52.806088 -3.512067 -177.364958 -18.378164 -2.220833 0.544028 16.769576 0.139516 0.062568 1.722025 0.021979 0.101620 2.877676 0.035047 0.537630 14.826367 0.205854 -2.245291 18.696683 1.667686 -2.768275 -5.935826 2.270530 1.647315 -0.902849 3.160971 1.166333 -10.690766 -6.503869 -108.517398 -76.196110 140.955327 -7.903111 -23.309960 -11.386971 -6.211335 -1.362677 0.150787 2.193872 -8.673803 10.322816 79.575734 -62.056165 -118.753790 2.624448 -15.248051 10.105401 2.705563 -60.439864 9.996500 179.203525 86.214411 177.757428 -13.188382 -23.137234 11.667866 -0.003780 -0.059076 0.213504 5.412324 -58.734503 -3.909186 120.615589 77.955403 118.830358 -6.920949 -20.011485 -0.555305 0.022581 0.097422 0.014409
-37.481880 52.807364 -3.510613 -177.367084 -18.390311 -2.221710 0.552370 16.769304 0.150975 0.059681 1.727900 0.018101 0.100229 2.871164 0.040272 0.536496 14.816008 0.214377 -2.234249 18.640608 1.621847 -2.739906 -6.008845 2.222908 1.636215 -0.894951 3.157729 1.157924 -10.686549 -6.505054 -108.568493 -76.174127 141.001227 -7.905392 -23.297377 -11.377611 -6.222256 -1.353069 0.160144 2.206533 -8.646971 10.287446 79.568068 -62.070707 -118.743582 2.625808 -15.249837 10.102210 2.689448 -60.424015 10.010334 179.370564 86.221242 177.894325 -13.005980 -23.126752 11.627513 0.002041 -0.071861 0.175281 5.412226 -58.722984 -3.903320 120.633172 77.959839 118.845818 -6.916753 -20.010980 -0.551048 0.021254 0.095760 0.012066
-37.482301 52.808433 -3.509662 -177.367821 -18.399057 -2.222381 0.555616 16.766001 0.159433 0.059105 1.727447 0.018458 0.096987 2.872654 0.044238 0.534464 14.819484 0.208054 -2.226854 18.609274 1.603215 -2.702513 -6.116604 2.162802 1.616825 -0.916764 3.176102 1.164641 -10.663131 -6.518464 -108.575226 -76.163592 141.007065 -7.901502 -23.302888 -11.377089 -6.222799 -1.347039 0.158630 2.204614 -8.630704 10.283015 79.541980 -62.083385 -118.717479 2.619919 -15.270886 10.098536 2.660198 -60.410247 10.036221 179.533436 86.225082 178.015082 -12.844775 -23.113171 11.605258 0.008469 -0.083111 0.139746 5.411018 -58.714094 -3.898849 120.642167 77.962675 118.852173 -6.912549 -20.014185 -0.548377 0.020128 0.097951 0.010732
-37.483351 52.809554 -3.509974 -177.361811 -18.409503 -2.219977 0.549994 16.767834 0.167408 0.057868 1.726436 0.018767 0.094248 2.874992 0.043208 0.520547 14.803403 0.225966 -2.207133 18.542641 1.539349 -2.682288 -6.166596 2.123154 1.624479 -0.898171 3.148143 1.164425 -10.658875 -6.519291 -108.607138 -76.144545 141.026934 -7.899160 -23.290452 -11.370320 -6.217497 -1.333931 0.141319 2.188724 -8.593217 10.269924 79.602194 -62.088943 -118.753189 2.618696 -15.267757 10.097681 2.637265 -60.396987 10.061326 179.702138 86.229243 178.169156 -12.860472 -23.086500 11.606167 0.009496 -0.086055 0.116810 5.411509 -58.702336 -3.904904 120.637853 77.962368 118.850055 -6.916184 -20.015723 -0.552912 0.025194 0.098025 0.013521
-37.482464 52.810907 -3.511728 -177.368709 -18.423549 -2.223758 0.556239 16.775656 0.182806 0.055828 1.721756 0.028661 0.096787 2.882811 0.028766 0.518710 14.802434 0.228019 -2.190449 18.462327 1.504596 -2.665560 -6.216671 2.086530 1.620345 -0.900343 3.144106 1.148785 -10.660422 -6.510367 -108.627654 -76.133314 141.051696 -7.900353 -23.274158 -11.365084 -6.230272 -1.336063 0.167353 2.197037 -8.576843 10.241486 79.611864 -62.087686 -118.754165 2.620251 -15.262827 10.097069 2.615187 -60.390375 10.145987 -179.790183 86.233754 178.709716 -13.214836 -23.025917 11.652322 -0.003557 -0.077200 0.110782 5.405363 -58.689637 -3.884277 120.657397 77.963372 118.858723 -6.908386 -19.988654 -0.542937 0.011306 0.069802 0.008970
-37.483169 52.811731 -3.512791 -177.369757 -18.428566 -2.218382 0.556566 16.778177 0.186787 0.050183 1.718482 0.028492 0.101524 2.886824 0.025081 0.518222 14.801621 0.230945 -2.187287 18.432198 1.486043 -2.636190 -6.315645 2.035076 1.605745 -0.907009 3.145008 1.124241 -10.652812 -6.473887 -108.700224 -76.149231 141.144784 -7.897366 -23.265065 -11.366847 -6.237778 -1.338551 0.179703 2.202330 -8.568599 10.223684 79.567714 -62.090807 -118.710417 2.615768 -15.273917 10.097056 2.613799 -60.390012 10.184100 -179.302246 86.240021 179.223570 -13.478857 -22.970795 11.690267 -0.011795 -0.074525 0.099429 5.411756 -58.684508 -3.887593 120.683513 77.963915 118.882714 -6.911892 -19.990583 -0.543566 0.012518 0.067683 0.011224
